/* XPM */
static char * freegeek_small_xpm[] = {
"75 73 257 2",
"  	c None",
". 	c #000000",
"+ 	c #010101",
"@ 	c #020202",
"# 	c #030303",
"$ 	c #040404",
"% 	c #050505",
"& 	c #060606",
"* 	c #070707",
"= 	c #080808",
"- 	c #090909",
"; 	c #0A0A0A",
"> 	c #0B0B0B",
", 	c #0C0C0C",
"' 	c #0D0D0D",
") 	c #0E0E0E",
"! 	c #0F0F0F",
"~ 	c #101010",
"{ 	c #111111",
"] 	c #121212",
"^ 	c #131313",
"/ 	c #141414",
"( 	c #151515",
"_ 	c #161616",
": 	c #171717",
"< 	c #181818",
"[ 	c #191919",
"} 	c #1A1A1A",
"| 	c #1B1B1B",
"1 	c #1C1C1C",
"2 	c #1D1D1D",
"3 	c #1E1E1E",
"4 	c #1F1F1F",
"5 	c #202020",
"6 	c #212121",
"7 	c #222222",
"8 	c #232323",
"9 	c #242424",
"0 	c #252525",
"a 	c #262626",
"b 	c #272727",
"c 	c #282828",
"d 	c #292929",
"e 	c #2A2A2A",
"f 	c #2B2B2B",
"g 	c #2C2C2C",
"h 	c #2D2D2D",
"i 	c #2E2E2E",
"j 	c #2F2F2F",
"k 	c #303030",
"l 	c #313131",
"m 	c #323232",
"n 	c #333333",
"o 	c #343434",
"p 	c #353535",
"q 	c #363636",
"r 	c #373737",
"s 	c #383838",
"t 	c #393939",
"u 	c #3A3A3A",
"v 	c #3B3B3B",
"w 	c #3C3C3C",
"x 	c #3D3D3D",
"y 	c #3E3E3E",
"z 	c #3F3F3F",
"A 	c #404040",
"B 	c #414141",
"C 	c #424242",
"D 	c #434343",
"E 	c #444444",
"F 	c #454545",
"G 	c #464646",
"H 	c #474747",
"I 	c #484848",
"J 	c #494949",
"K 	c #4A4A4A",
"L 	c #4B4B4B",
"M 	c #4C4C4C",
"N 	c #4D4D4D",
"O 	c #4E4E4E",
"P 	c #4F4F4F",
"Q 	c #505050",
"R 	c #515151",
"S 	c #525252",
"T 	c #535353",
"U 	c #545454",
"V 	c #555555",
"W 	c #565656",
"X 	c #575757",
"Y 	c #585858",
"Z 	c #595959",
"` 	c #5A5A5A",
" .	c #5B5B5B",
"..	c #5C5C5C",
"+.	c #5D5D5D",
"@.	c #5E5E5E",
"#.	c #5F5F5F",
"$.	c #606060",
"%.	c #616161",
"&.	c #626262",
"*.	c #636363",
"=.	c #646464",
"-.	c #656565",
";.	c #666666",
">.	c #676767",
",.	c #686868",
"'.	c #696969",
").	c #6A6A6A",
"!.	c #6B6B6B",
"~.	c #6C6C6C",
"{.	c #6D6D6D",
"].	c #6E6E6E",
"^.	c #6F6F6F",
"/.	c #707070",
"(.	c #717171",
"_.	c #727272",
":.	c #737373",
"<.	c #747474",
"[.	c #757575",
"}.	c #767676",
"|.	c #777777",
"1.	c #787878",
"2.	c #797979",
"3.	c #7A7A7A",
"4.	c #7B7B7B",
"5.	c #7C7C7C",
"6.	c #7D7D7D",
"7.	c #7E7E7E",
"8.	c #7F7F7F",
"9.	c #808080",
"0.	c #818181",
"a.	c #828282",
"b.	c #838383",
"c.	c #848484",
"d.	c #858585",
"e.	c #868686",
"f.	c #878787",
"g.	c #888888",
"h.	c #898989",
"i.	c #8A8A8A",
"j.	c #8B8B8B",
"k.	c #8C8C8C",
"l.	c #8D8D8D",
"m.	c #8E8E8E",
"n.	c #8F8F8F",
"o.	c #909090",
"p.	c #919191",
"q.	c #929292",
"r.	c #939393",
"s.	c #949494",
"t.	c #959595",
"u.	c #969696",
"v.	c #979797",
"w.	c #989898",
"x.	c #999999",
"y.	c #9A9A9A",
"z.	c #9B9B9B",
"A.	c #9C9C9C",
"B.	c #9D9D9D",
"C.	c #9E9E9E",
"D.	c #9F9F9F",
"E.	c #A0A0A0",
"F.	c #A1A1A1",
"G.	c #A2A2A2",
"H.	c #A3A3A3",
"I.	c #A4A4A4",
"J.	c #A5A5A5",
"K.	c #A6A6A6",
"L.	c #A7A7A7",
"M.	c #A8A8A8",
"N.	c #A9A9A9",
"O.	c #AAAAAA",
"P.	c #ABABAB",
"Q.	c #ACACAC",
"R.	c #ADADAD",
"S.	c #AEAEAE",
"T.	c #AFAFAF",
"U.	c #B0B0B0",
"V.	c #B1B1B1",
"W.	c #B2B2B2",
"X.	c #B3B3B3",
"Y.	c #B4B4B4",
"Z.	c #B5B5B5",
"`.	c #B6B6B6",
" +	c #B7B7B7",
".+	c #B8B8B8",
"++	c #B9B9B9",
"@+	c #BABABA",
"#+	c #BBBBBB",
"$+	c #BCBCBC",
"%+	c #BDBDBD",
"&+	c #BEBEBE",
"*+	c #BFBFBF",
"=+	c #C0C0C0",
"-+	c #C1C1C1",
";+	c #C2C2C2",
">+	c #C3C3C3",
",+	c #C4C4C4",
"'+	c #C5C5C5",
")+	c #C6C6C6",
"!+	c #C7C7C7",
"~+	c #C8C8C8",
"{+	c #C9C9C9",
"]+	c #CACACA",
"^+	c #CBCBCB",
"/+	c #CCCCCC",
"(+	c #CDCDCD",
"_+	c #CECECE",
":+	c #CFCFCF",
"<+	c #D0D0D0",
"[+	c #D1D1D1",
"}+	c #D2D2D2",
"|+	c #D3D3D3",
"1+	c #D4D4D4",
"2+	c #D5D5D5",
"3+	c #D6D6D6",
"4+	c #D7D7D7",
"5+	c #D8D8D8",
"6+	c #D9D9D9",
"7+	c #DADADA",
"8+	c #DBDBDB",
"9+	c #DCDCDC",
"0+	c #DDDDDD",
"a+	c #DEDEDE",
"b+	c #DFDFDF",
"c+	c #E0E0E0",
"d+	c #E1E1E1",
"e+	c #E2E2E2",
"f+	c #E3E3E3",
"g+	c #E4E4E4",
"h+	c #E5E5E5",
"i+	c #E6E6E6",
"j+	c #E7E7E7",
"k+	c #E8E8E8",
"l+	c #E9E9E9",
"m+	c #EAEAEA",
"n+	c #EBEBEB",
"o+	c #ECECEC",
"p+	c #EDEDED",
"q+	c #EEEEEE",
"r+	c #EFEFEF",
"s+	c #F0F0F0",
"t+	c #F1F1F1",
"u+	c #F2F2F2",
"v+	c #F3F3F3",
"w+	c #F4F4F4",
"x+	c #F5F5F5",
"y+	c #F6F6F6",
"z+	c #F7F7F7",
"A+	c #F8F8F8",
"B+	c #F9F9F9",
"C+	c #FAFAFA",
"D+	c #FBFBFB",
"E+	c #FCFCFC",
"F+	c #FDFDFD",
"G+	c #FEFEFE",
"H+	c #FFFFFF",
"P q t t t t t t t t t t t t t t t t t t t t t t t t t t t t t t t t t t 0 | | | | | | | | | | | | | | | | | | | | | | | | | | | | | | | | | | | | 1 < ",
"_ . . . . . . . . . . . . . . . . . . . . . . . . . . . . . . . . . . . . . . . . . . . . . . . . . . . . . . . . . . . . . . . . . . . . . . . . . . ",
"3 . . . . . . . . . . . . . . . . . . . . . . . . . . . . . . . . . . . . . . . . . . . . . . . . . . . . . . . . . . . . . . . . . . . . . . . . . . ",
"3 . . . . . . . . . . . . . . . . . . . . . . . . . . . . . . . . . . . . . . . . . . . . . . . . . . . . . . . . . . . . . . . . . . . . . . . . . . ",
"3 . . . . . . . . . . . . . . . . . . . . . . . . . . . . . . . . . . . . . . . . . . . . . . . . . . . . . . . . . . . . . . . . . . . . . . . . . . ",
"3 . . . . . . . . . . . . . . . . . . . . . . . . . . . . . . . . . . . . . . . . . . . . . . . . . . . . . . . . . . . . . . . . . . . . . . . . . . ",
"3 . . . . - < < : : : : : : : : [ ! . . . > [ : : : : : : : < ^ + . . . . . . # / [ : : : : : : : : : < ( # . . . ~ [ : : : : : : : : : < : * . . . . ",
"3 . . . . U ]+^+]+]+]+]+]+]+]+]+(+b.@ . . =._+]+]+]+]+]+]+]+^+;+D.F . . . . . | R.(+]+]+]+]+]+]+]+]+]+/+`.5 . . & s.(+]+]+]+]+]+]+]+]+]+^+,+A . . . . ",
"3 . . . . ~.H+H+H+H+H+H+H+H+H+H+H+N.@ . . 0.H+H+H+H+H+H+H+H+H+H+H+o+Y . . . . 7 c+H+H+H+H+H+H+H+H+H+H+H+o+d . . = *+H+H+H+H+H+H+H+H+H+H+H+G+R . . . . ",
"3 . . . . >.H+H+H+H+H+H+H+H+H+H+H+F.@ . . 4.H+H+H+H+H+H+H+H+H+H+H+H+8+0 . . . 5 4+H+H+H+H+H+H+H+H+H+H+H+d+a . . *  +H+H+H+H+H+H+H+H+H+H+H+x+M . . . . ",
"3 . . . . >.H+H+H+H+H+H+H+H+H+H+H+M.# . . 4.H+H+H+H+H+H+H+H+H+H+H+H+H+/.. . . 5 4+H+H+H+H+H+H+H+H+H+H+H+l+d . . *  +H+H+H+H+H+H+H+H+H+H+H+E+R . . . . ",
"3 . . . . >.H+H+H+y+[+]+/+/+/+^+|+d.@ . . 4.H+H+H+8+g.8.0.x.8+H+H+H+H+S.$ . . 5 4+H+H+H+0+{+/+/+/+/+/+<+.+4 . . *  +H+H+H+i+{+^+/+/+/+/+:+~+z . . . . ",
"3 . . . . >.H+H+H+2+b > ! ! ! ! { > . . . 4.H+H+H+W.& . . . g :+H+H+H+:+~ . . 5 4+H+H+H+%.; ) ! ! ! ! { ) @ . . *  +H+H+H+h.; ) ! ! ! ! ~ ~ $ . . . . ",
"3 . . . . >.H+H+H+[+^ . . . . . . . . . . 4.H+H+H+`.> . . . . 1.H+H+H+4+< . . 5 4+H+H+H+T . . . . . . . . . . . *  +H+H+H+6.. . . . . . . . . . . . . ",
"3 . . . . >.H+H+H+}+[ . . . . . . . . . . 4.H+H+H+ +' . . . .  .F+H+H+3+< . . 5 4+H+H+H+Y . . . . . . . . . . . *  +H+H+H+0.. . . . . . . . . . . . . ",
"3 . . . . >.H+H+H+}+[ . . . . . . . . . . 4.H+H+H+ +' . . . . *.H+H+H+|+^ . . 5 4+H+H+H+T . . . . . . . . . . . *  +H+H+H+6.. . . . . . . . . . . . . ",
"3 . . . . >.H+H+H+<+) . . . . . . . . . . 4.H+H+H+Z.- . . . # K.H+H+H+@+& . . 5 4+H+H+H+#.> ! ~ ~ ~ ~ ~ * . . . *  +H+H+H+e., ! ~ ~ ~ ~ { ; . . . . . ",
"3 . . . . >.H+H+H+e+).` +.+.@.#.i . . . . 4.H+H+H+@+: * ) i c.y+H+H+H+a.. . . 5 4+H+H+H+3+#+*+=+=+=+;+>+V . . . *  +H+H+H+d+$+*+=+=+=+=+!+}.. . . . . ",
"3 . . . . >.H+H+H+H+E+E+E+E+E+F+0.. . . . 4.H+H+H+t+^+!+(+n+H+H+H+H+n+k . . . 5 4+H+H+H+H+H+H+H+H+H+H+H+|.. . . *  +H+H+H+H+H+H+H+H+H+H+H+J.. . . . . ",
"3 . . . . >.H+H+H+H+H+H+H+H+H+H+8.. . . . 4.H+H+H+H+H+H+H+H+H+H+H+H+a.@ . . . 5 4+H+H+H+H+H+H+H+H+H+H+H+/.. . . *  +H+H+H+H+H+H+H+H+H+H+H+A.. . . . . ",
"3 . . . . >.H+H+H+H+H+H+H+H+H+H+0.. . . . 4.H+H+H+H+H+H+H+H+H+F+t+m.' . . . . 5 4+H+H+H+H+H+H+H+H+H+H+H+|.. . . *  +H+H+H+H+H+H+H+H+H+H+H+J.. . . . . ",
"3 . . . . >.H+H+H+F+u+s+t+t+t+u+4.. . . . 4.H+H+H+G+B+H+H+H+H+X.l . . . . . . 5 4+H+H+H+7+>+)+)+)+)+{+{+Y . . . *  +H+H+H+f+>+)+)+)+)+!+(+4.. . . . . ",
"3 . . . . >.H+H+H+b+U C E E F H 6 . . . . 4.H+H+H+<+..<.g+H+H+:+&.& . . . . . 5 4+H+H+H+$.> ~ ~ ~ ~ { { * . . . *  +H+H+H+f., ! ~ ~ ~ ~ ] ; . . . . . ",
"3 . . . . >.H+H+H+<+! . . . . . . . . . . 4.H+H+H+X.. . &.z+H+H+E+/.. . . . . 5 4+H+H+H+U . . . . . . . . . . . *  +H+H+H+6.. . . . . . . . . . . . . ",
"3 . . . . >.H+H+H+}+[ . . . . . . . . . . 4.H+H+H+ +' . = >+H+H+H+b+6 . . . . 5 4+H+H+H+Y . . . . . . . . . . . *  +H+H+H+0.. . . . . . . . . . . . . ",
"3 . . . . >.H+H+H+}+[ . . . . . . . . . . 4.H+H+H+ +' . . 1.H+H+H+H+3.. . . . 5 4+H+H+H+Y . . . . . . . . . . . *  +H+H+H+0.. . . . . . . . . . . . . ",
"3 . . . . >.H+H+H+}+[ . . . . . . . . . . 4.H+H+H+ +' . . q u+H+H+H+;+~ . . . 5 4+H+H+H+T . . . . . . . . . . . *  +H+H+H+7.. . . . . . . . . . . . . ",
"3 . . . . >.H+H+H+}+[ . . . . . . . . . . 4.H+H+H+ +' . . * $+H+H+H+t+w . . . 5 4+H+H+H+ .- ; ; ; ; ; > > $ . . *  +H+H+H+b.- ; ; ; ; ; > , % . . . . ",
"3 . . . . >.H+H+H+}+[ . . . . . . . . . . 4.H+H+H+ +' . . . {.H+H+H+H+9.. . . 5 4+H+H+H+(+T.X.X.X.X.X.Y.`.K . . *  +H+H+H+7+U.W.X.X.X.X.Y..+!.. . . . ",
"3 . . . . >.H+H+H+}+[ . . . . . . . . . . 4.H+H+H+ +' . . . m o+H+H+H+,+; . . 5 4+H+H+H+H+H+H+H+H+H+H+H+H+{.. . *  +H+H+H+H+H+H+H+H+H+H+H+H+A.. . . . ",
"3 . . . . >.H+H+H+}+[ . . . . . . . . . . 4.H+H+H+ +' . . . , `.H+H+H+v+v . . 5 4+H+H+H+H+H+H+H+H+H+H+H+H+;.. . *  +H+H+H+H+H+H+H+H+H+H+H+H+p.. . . . ",
"3 . . . . ,.H+H+H+1+} . . . . . . . . . . 5.H+H+H+.+' . . . . {.F+H+H+H+0.. . 6 5+H+H+H+H+H+H+H+H+H+H+H+H+,.. . * .+H+H+H+H+H+H+H+H+H+H+H+H+r.. . . . ",
"3 . . . . ).H+H+H+5+} . . . . . . . . . . 7.H+H+H+$+) . . . . f i+H+H+H+/+{ . 7 9+H+H+H+H+H+H+H+H+H+H+H+H+).. . * #+H+H+H+H+H+H+H+H+H+H+H+H+u.. . . . ",
"3 . . . . g ].{./.` > . . . . . . . . . . p (.!./.Q & . . . . % V /.~.^.-._ . ) +.^.~.~.~.~.~.~.~.~.~.{.].f . . @ O /.~.~.~.~.~.~.~.~.~.~./.z . . . . ",
"{ . . . . . . . . . . . . . . . . . . . . . . . . . . . . . . . . . . . . . . . . . . . . . . . . . . . . . . . . . . . . . . . . . . . . . . . . . . ",
". . . . . . . . . . . . . . . . . . . . . . . . . . . . . . . . . . . . . . . . . . . . . . . . . . . . . . . . . . . . . . . . . . . . . . . . . . . ",
". . . . . . . . . . . . . . . . . . . . . . . . . . . . . . . . . . . . . . . . . . . . . . . . . . . . . . . . . . . . . . . . . . . . . . . . . . . ",
". . . . . . . . . . . . . . . . . . . . . . . . . . . . . . . . . . . . . . . . . . . . . . . . . . . . . . . . . . . . . . . . . . . . . . . . . . . ",
". . . . . . . . . . . . . . . . . . . . . . . . . . . . . . . . . . . . . . . . . . . . . . . . . . . . . . . . . . . . . . . . . . . . . . . . . . . ",
". . . . . . . . . . . . . . . . . . . . . . . . . . . . . . . . . . . . . . . . . . . . . . . . . . . . . . . . . . . . . . . . . . . . . . . . . . . ",
". . . . . . . . . . . ( 6 6 ( . . . . . . . . . . . . . . . . . . . . . . . . . . . . . . . . . . . . . . . . . . . . . . . . . . . . . . . + . . . . ",
". . . . . . . . . J D.)+|+|+)+N.W @ . . . . = /.y.r.r.r.r.r.r.r.r.r.x.5.' . a m.u.r.r.r.r.r.r.r.r.s.v.K . .  .z.s.w.M . . . . . G x.s.r.x.m.5 . . . . ",
". . . . . . . $ c.t+H+H+H+H+H+H+y+j.# . . . ! /+H+H+H+H+H+H+H+H+H+H+H+c+[ . G H+H+H+H+H+H+H+H+H+H+H+H+e.. + G.H+H+H+i.. . . . / ~+H+H+H+H+ +> . . . . ",
". . . . . . @ 0.H+H+H+H+H+H+H+H+H+H+].. . . ! >+H+H+H+H+H+H+H+H+H+H+H+3+: . C B+H+H+H+H+H+H+H+H+H+H+H+9.. + z.H+H+H+c.. . . . *.H+H+H+H+k+l . . . . . ",
". . . . . . G u+H+H+H+H+H+H+H+H+H+H+3+1 . . ! ;+H+H+H+H+H+H+H+H+H+H+H+5+: . C z+H+H+H+H+H+H+H+H+H+H+H+0.. + y.H+H+H+b.. . . ( _+H+H+H+H+7.. . . . . . ",
". . . . . , @+H+H+H+H+B+f+l+H+H+H+H+H+;.. . ! ;+H+H+H+F+C+D+D+D+D+D+E+3+< . C z+H+H+H+D+C+D+D+D+D+D+E+0.. + y.H+H+H+b.. . . :.H+H+H+H+]+: . . . . . . ",
". . . . . F B+H+H+H+3+Z 6 k q.C+H+H+H+S.* . ! ;+H+H+H+O.+.$.$.$.$.$.=.R - . C z+H+H+k+_.+.$.$.$.$.$.*.k . + y.H+H+H+b.. . 5 6+H+H+H+C+ .. . . . . . . ",
". . . . . k.H+H+H+j+x . . . % L.H+H+H+$+_ . ! ;+H+H+H+(.. . . . . . . . . . C z+H+H+5+_ . . . . . . . . . + y.H+H+H+b.. . 3.H+H+H+H+U.; . . . . . . . ",
". . . . , )+H+H+H+r.. . . . . y <+C.#.8 $ . ! ;+H+H+H+1.. . . . . . . . . . C z+H+H+7+5 . . . . . . . . . + y.H+H+H+b.. 4 5+H+H+H+q+t . . . . . . . . ",
". . . . l h+H+H+A+F . . . . . @ ~ . . . . . ! ;+H+H+H+1.. . . . . . . . . . C z+H+H+7+5 . . . . . . . . . + y.H+H+H+9.. 0.H+H+H+H+a.. . . . . . . . . ",
". . . . O x+H+H+a+2 . . . . . . . . . . . . ! ;+H+H+H+(.. . . . . . . . . . C z+H+H+5+_ . . . . . . . . . + y.H+H+H+/.( a+H+H+H+_+1 . . . . . . . . . ",
". . . . %.G+H+H+&+' . . . . . . . . . . . . ! ;+H+H+H+S.=.,.,.,.,.,.~.b . . C z+H+H+l+2.-.,.,.,.,.~.T = . + y.H+H+H+;+Z.H+H+H+H+I.@ . . . . . . . . . ",
". . . . <.H+H+H+O.% . . . - { ! ! ! ! ! % . ! ;+H+H+H+H+H+H+H+H+H+H+H+$.. . C z+H+H+H+H+H+H+H+H+H+H+/+^ . + y.H+H+H+H+H+H+H+H+H+9+0 . . . . . . . . . ",
". . . . 2.H+H+H+J.# . . . (.*+$+$+$+$+$+B . ) ;+H+H+H+H+H+H+H+H+H+H+H+$.. . C z+H+H+H+H+H+H+H+H+H+H+{+^ . + y.H+H+H+H+H+H+H+H+H+H+-.. . . . . . . . . ",
". . . . 1.H+H+H+L.# . . . G.H+H+H+H+H+H+ .. ) ;+H+H+H+H+H+H+H+H+H+H+H+&.. . C z+H+H+H+H+H+H+H+H+H+H+(+/ . + y.H+H+H+H+H+H+H+H+H+H+Y.% . . . . . . . . ",
". . . . 2.H+H+H+K.# . . . y.H+H+H+H+H+G+W . ) ;+H+H+H+z+r+s+s+s+s+s+v+ .. . C z+H+H+F+u+r+s+s+s+s+u+;+^ . + y.H+H+H+H+H+H+H+H+H+H+u+u . . . . . . . . ",
". . . . 2.H+H+H+M.# . . . D.H+H+H+H+H+G+W . ) ;+H+H+H+z.F H H H H H L | . . C z+H+H+e+ .G H H H H K r % . + y.H+H+H+H+H+y+t.0+H+H+H+e.. . . . . . . . ",
". . . . =.G+H+H+#+> . . . 3.}+,+2+E+H+G+W . ) ;+H+H+H+/.. . . . . . . . . . C z+H+H+4+^ . . . . . . . . . + y.H+H+H+H+H+@+% L.H+H+H+<+^ . . . . . . . ",
". . . . R z+H+H+6+} . . . > ( , O r+H+G+W . ) ;+H+H+H+1.. . . . . . . . . . C z+H+H+7+5 . . . . . . . . . + y.H+H+H+H+w+J . ^.H+H+H+z+R . . . . . . . ",
". . . . s l+H+H+x+u . . . . . . v o+H+G+W . ) ;+H+H+H+1.. . . . . . . . . . C z+H+H+7+5 . . . . . . . . . + y.H+H+H+H+z.@ . k p+H+H+H+x.# . . . . . . ",
". . . . / <+H+H+H+b.. . . . . . v q+H+G+W . ) ;+H+H+H+|.. . . . . . . . . . C z+H+H+7+4 . . . . . . . . . + y.H+H+H+7+d . . & .+H+H+H+8+7 . . . . . . ",
". . . . . z.H+H+H+a+i . . . . ' q.G+H+G+W . ) ;+H+H+H+(.. . . . . . . . . . C z+H+H+5+_ . . . . . . . . . + y.H+H+H+k.. . . . [.H+H+H+H+;.. . . . . . ",
". . . . . W F+H+H+H+'+z ~ ^ z R.H+H+H+H+Y . ) ;+H+H+H+ +(.|.|.|.|.|.2.<.3 . C z+H+H+o+f.:.|.|.|.|.|.7.Q . . y.H+H+H+9.. . . . u v+H+H+H+`.& . . . . . ",
". . . . . / <+H+H+H+H+m+,+!+m+H+H+H+H+H+W . ) ;+H+H+H+H+H+H+H+H+H+H+H+D+E . C z+H+H+H+H+H+H+H+H+H+H+H+X.. . y.H+H+H+b.. . . . / )+H+H+H+s+n . . . . . ",
". . . . . . '.G+H+H+H+H+H+H+H+H+H+H+H+'+7 . ) ;+H+H+H+H+H+H+H+H+H+H+H+C+D . C z+H+H+H+H+H+H+H+H+H+H+H+S.. . y.H+H+H+b.. . . . . g.H+H+H+H+8.. . . . . ",
". . . . . . ! Q.H+H+H+H+H+H+H+H+H+H+=+e . . ! ;+H+H+H+H+H+H+H+H+H+H+H+A+C . C A+H+H+H+H+H+H+H+H+H+H+H+Q.. . y.H+H+H+b.. . . . . J x+H+H+H+{+{ . . . . ",
". . . . . . . | Y.H+H+H+H+H+H+H+C+B._ . . . ~ :+H+H+H+H+H+H+H+H+H+H+H+H+H . H H+H+H+H+H+H+H+H+H+H+H+H+.+. . I.H+H+H+k.. . . . . : 5+H+H+H+H+ .. . . . ",
". . . . . . . . ] <.)+e+p+l+8+U.T $ . . . . ; e.`.T.T.T.T.T.T.T.T.T.W.O.i . i O.W.T.T.T.T.T.T.T.T.U.`.|.. . ).Z.V.Y. .. . . . . . ^.Z.U.U..+%.. . . . ",
". . . . . . . . . . ! k B v 9 @ . . . . . . . . . . . . . . . . . . . . . . . . . . . . . . . . . . . . . . . . . . . . . . . . . . . . . . + . . . . ",
". . . . . . . . . . . . . . . . . . . . . . . . . . . . . . . . . . . . . . . . . . . . . . . . . . . . . . . . . . . . . . . . . . . . . . . . . . . ",
". . . . . . . . . . . . . . . . . . . . . . . . . . . . . . . . . . . . . . . . . . . . . . . . . . . . . . . . . . . . . . . . . . . . . . . . . . . ",
". . . . . . . . . . . . . . . . . . . . . . . . . . . . . . . . . . . . . . . . . . . . . . . . . . . . . . . . . . . . . . . . . . . . . . . . . . . ",
". . . . . . . . . . . . . . . . . . . . . . . . . . . . . . . . . . . . . . . . . . . . . . . . . . . . . . . . . . . . . . . . . . . . . . . . . . . "};
